# xmcd
#
# Track frame offsets:
#	150
#	26677
#	48528
#	67546
#	89820
#	110642
#	134317
#	156745
#	176561
#	198052
#
# Disc length: 3029 seconds
#
# Revision: 1
# Processed by: cddbd v1.5.2PL0 Copyright (c) Steve Scherf et al.
# Submitted via: EZCDAudioConverter 8.0.2.1
#
DISCID=8a0bd30a
DTITLE=Mai Ngọc Khánh, Thiên Trang, Lưu Hồng - Đường Xưa Lối Cũ
DYEAR=1996
DGENRE=country
TTITLE0=Mai Ngọc Khánh - Đường Xưa Lối Cũ
TTITLE1=Thiên Trang - Tôi chưa có người yêu
TTITLE2=Lưu Hồng - Lá thư gửi mẹ
TTITLE3=Mai Ngọc Khánh - XIn đừng bỏ nhau
TTITLE4=Thiên Trang - Tựa cánh bèo trôi
TTITLE5=Lưu Hồng - Kiếp ve sầu
TTITLE6=Mai Ngọc Khánh - Lá thư miền Trung
TTITLE7=Thiên Trang - Yêu em từ đó
TTITLE8=Lưu Hồng - Khi mình xa nhau
TTITLE9=Thiên Trang - Chuyện tình người đan áo
EXTD=
EXTT0=
EXTT1=
EXTT2=
EXTT3=
EXTT4=
EXTT5=
EXTT6=
EXTT7=
EXTT8=
EXTT9=
PLAYORDER=
